# xmcd
# 
# Track frame offsets:
#     182
#     13750
#     28727
#     44087
#     57137
#     68135
#     81945
#     92415
#     105020
#     122922
#     134882
#     143705
#     164640
#     176975
#     189147
#     204437
# 
# Disc length: 2885
# 
# Revision: 4
# Processed by: cddbd v1.5.2PL0 Copyright (c) Steve Scherf et al.
# Submitted via: fre:ac v1.0.31
# 
DISCID=e20b4310
DTITLE=Columbia Blues - John Hammond I Can Tell
DYEAR=1992
DGENRE=Blues
TTITLE0=I Wish You Would
TTITLE1=I'm In The Mood
TTITLE2=I Can Tell
TTITLE3=Spoonful
TTITLE4=Coming Home
TTITLE5=My Baby Is Sweeter
TTITLE6=Brown Eyed Handsome Man
TTITLE7=Smokestack Lightning
TTITLE8=Five Long Years
TTITLE9=You're So Fine
TTITLE10=Going To New York
TTITLE11=Forty Days And Forty Nights
TTITLE12=Shake For Me
TTITLE13=Cryin' For My Baby
TTITLE14=I'm Leavin' You
TTITLE15=You'll Be Mine
EXTD=YEAR: 1992
EXTT0=
EXTT1=
EXTT2=
EXTT3=
EXTT4=
EXTT5=
EXTT6=
EXTT7=
EXTT8=
EXTT9=
EXTT10=
EXTT11=
EXTT12=
EXTT13=
EXTT14=
EXTT15=
PLAYORDER=
